<svg xmlns="http://www.w3.org/2000/svg" width="1400" height="780" viewBox="0 0 1400 780"><defs><marker id="arrow-owner" viewBox="0 0 10 10" refX="9" refY="5" markerWidth="8" markerHeight="8" orient="auto-start-reverse"><path d="M0,0 L10,5 L0,10 z" fill="#0F766E"/></marker><marker id="arrow-ai" viewBox="0 0 10 10" refX="9" refY="5" markerWidth="8" markerHeight="8" orient="auto-start-reverse"><path d="M0,0 L10,5 L0,10 z" fill="#6D28D9"/></marker><marker id="arrow-analyst" viewBox="0 0 10 10" refX="9" refY="5" markerWidth="8" markerHeight="8" orient="auto-start-reverse"><path d="M0,0 L10,5 L0,10 z" fill="#1D4ED8"/></marker><marker id="arrow-committee" viewBox="0 0 10 10" refX="9" refY="5" markerWidth="8" markerHeight="8" orient="auto-start-reverse"><path d="M0,0 L10,5 L0,10 z" fill="#B45309"/></marker><marker id="arrow-admin" viewBox="0 0 10 10" refX="9" refY="5" markerWidth="8" markerHeight="8" orient="auto-start-reverse"><path d="M0,0 L10,5 L0,10 z" fill="#BE123C"/></marker><marker id="arrow-rules" viewBox="0 0 10 10" refX="9" refY="5" markerWidth="8" markerHeight="8" orient="auto-start-reverse"><path d="M0,0 L10,5 L0,10 z" fill="#047857"/></marker><filter id="shadow" x="-10%" y="-10%" width="130%" height="140%"><feDropShadow dx="0" dy="2" stdDeviation="2.5" flood-color="#0f172a" flood-opacity="0.18"/></filter></defs><rect width="1400" height="780" fill="#F8FAFC"/><text x="40" y="48" font-family="Segoe UI, Inter, Helvetica, Arial, sans-serif" font-size="24" font-weight="800" fill="#0f172a">FinSentinel — case lifecycle by role</text><text x="40" y="70" font-family="Segoe UI, Inter, Helvetica, Arial, sans-serif" font-size="13" fill="#475569">States and transitions from the workflow state machine (FR-WF-01..09). AI prepares. Rules calculate. Humans decide.</text><rect x="40" y="110" width="1320" height="140" rx="16" fill="#CCFBF1" opacity="0.45"/><rect x="40" y="110" width="150" height="140" rx="16" fill="#0F766E"/><text x="115" y="185" text-anchor="middle" font-family="Segoe UI, Inter, Helvetica, Arial, sans-serif" font-size="15" font-weight="700" fill="#ffffff">Product Owner</text><rect x="40" y="260" width="1320" height="130" rx="16" fill="#EDE9FE" opacity="0.45"/><rect x="40" y="260" width="150" height="130" rx="16" fill="#6D28D9"/><text x="115" y="330" text-anchor="middle" font-family="Segoe UI, Inter, Helvetica, Arial, sans-serif" font-size="15" font-weight="700" fill="#ffffff">AI pipeline</text><rect x="40" y="400" width="1320" height="150" rx="16" fill="#DBEAFE" opacity="0.45"/><rect x="40" y="400" width="150" height="150" rx="16" fill="#1D4ED8"/><text x="115" y="480" text-anchor="middle" font-family="Segoe UI, Inter, Helvetica, Arial, sans-serif" font-size="15" font-weight="700" fill="#ffffff">FCRM Analyst</text><rect x="40" y="560" width="1320" height="150" rx="16" fill="#FEF3C7" opacity="0.45"/><rect x="40" y="560" width="150" height="150" rx="16" fill="#B45309"/><text x="115" y="640" text-anchor="middle" font-family="Segoe UI, Inter, Helvetica, Arial, sans-serif" font-size="15" font-weight="700" fill="#ffffff">Risk Committee</text><g filter="url(#shadow)"><rect x="240" y="148" width="190" height="64" rx="14" fill="#CCFBF1" stroke="#0F766E" stroke-width="2.5"/></g><text x="335" y="176.5" text-anchor="middle" font-family="Segoe UI, Inter, Helvetica, Arial, sans-serif" font-size="15" font-weight="700" fill="#134E4A">SUBMITTED</text><text x="335" y="191.5" text-anchor="middle" font-family="Segoe UI, Inter, Helvetica, Arial, sans-serif" font-size="12" font-weight="400" fill="#134E4A" opacity="0.85">New case + documents</text><g filter="url(#shadow)"><rect x="1040" y="148" width="270" height="64" rx="14" fill="#CCFBF1" stroke="#0F766E" stroke-width="2.5"/></g><text x="1175" y="169" text-anchor="middle" font-family="Segoe UI, Inter, Helvetica, Arial, sans-serif" font-size="15" font-weight="700" fill="#134E4A">INFO_REQUESTED</text><text x="1175" y="184" text-anchor="middle" font-family="Segoe UI, Inter, Helvetica, Arial, sans-serif" font-size="12" font-weight="400" fill="#134E4A" opacity="0.85">Owner answers, or</text><text x="1175" y="199" text-anchor="middle" font-family="Segoe UI, Inter, Helvetica, Arial, sans-serif" font-size="12" font-weight="400" fill="#134E4A" opacity="0.85">analyst accepts the gap</text><g filter="url(#shadow)"><rect x="240" y="293" width="190" height="64" rx="14" fill="#EDE9FE" stroke="#6D28D9" stroke-width="2.5"/></g><text x="335" y="314" text-anchor="middle" font-family="Segoe UI, Inter, Helvetica, Arial, sans-serif" font-size="15" font-weight="700" fill="#3B0764">ASSESSMENT</text><text x="335" y="329" text-anchor="middle" font-family="Segoe UI, Inter, Helvetica, Arial, sans-serif" font-size="12" font-weight="400" fill="#3B0764" opacity="0.85">Pipeline: parse</text><text x="335" y="344" text-anchor="middle" font-family="Segoe UI, Inter, Helvetica, Arial, sans-serif" font-size="12" font-weight="400" fill="#3B0764" opacity="0.85">→ … → packet</text><g filter="url(#shadow)"><rect x="520" y="293" width="250" height="64" rx="32" fill="#EDE9FE" stroke="#6D28D9" stroke-width="2.5"/></g><text x="645" y="314" text-anchor="middle" font-family="Segoe UI, Inter, Helvetica, Arial, sans-serif" font-size="15" font-weight="700" fill="#3B0764">LLM step failed?</text><text x="645" y="329" text-anchor="middle" font-family="Segoe UI, Inter, Helvetica, Arial, sans-serif" font-size="12" font-weight="400" fill="#3B0764" opacity="0.85">Case stays in ASSESSMENT</text><text x="645" y="344" text-anchor="middle" font-family="Segoe UI, Inter, Helvetica, Arial, sans-serif" font-size="12" font-weight="400" fill="#3B0764" opacity="0.85">— never advances</text><g filter="url(#shadow)"><rect x="240" y="443" width="190" height="64" rx="14" fill="#DBEAFE" stroke="#1D4ED8" stroke-width="2.5"/></g><text x="335" y="464" text-anchor="middle" font-family="Segoe UI, Inter, Helvetica, Arial, sans-serif" font-size="15" font-weight="700" fill="#1E3A8A">ANALYST_REVIEW</text><text x="335" y="479" text-anchor="middle" font-family="Segoe UI, Inter, Helvetica, Arial, sans-serif" font-size="12" font-weight="400" fill="#1E3A8A" opacity="0.85">Clear blockers,</text><text x="335" y="494" text-anchor="middle" font-family="Segoe UI, Inter, Helvetica, Arial, sans-serif" font-size="12" font-weight="400" fill="#1E3A8A" opacity="0.85">challenge, override</text><g filter="url(#shadow)"><rect x="520" y="443" width="250" height="64" rx="32" fill="#DBEAFE" stroke="#1D4ED8" stroke-width="2.5"/></g><text x="645" y="464" text-anchor="middle" font-family="Segoe UI, Inter, Helvetica, Arial, sans-serif" font-size="15" font-weight="700" fill="#1E3A8A">Finalize guard</text><text x="645" y="479" text-anchor="middle" font-family="Segoe UI, Inter, Helvetica, Arial, sans-serif" font-size="12" font-weight="400" fill="#1E3A8A" opacity="0.85">No unsupported claims,</text><text x="645" y="494" text-anchor="middle" font-family="Segoe UI, Inter, Helvetica, Arial, sans-serif" font-size="12" font-weight="400" fill="#1E3A8A" opacity="0.85">contradictions, open requests</text><g filter="url(#shadow)"><rect x="240" y="603" width="190" height="64" rx="14" fill="#FEF3C7" stroke="#B45309" stroke-width="2.5"/></g><text x="335" y="624" text-anchor="middle" font-family="Segoe UI, Inter, Helvetica, Arial, sans-serif" font-size="15" font-weight="700" fill="#78350F">COMMITTEE_REVIEW</text><text x="335" y="639" text-anchor="middle" font-family="Segoe UI, Inter, Helvetica, Arial, sans-serif" font-size="12" font-weight="400" fill="#78350F" opacity="0.85">Packet, evidence,</text><text x="335" y="654" text-anchor="middle" font-family="Segoe UI, Inter, Helvetica, Arial, sans-serif" font-size="12" font-weight="400" fill="#78350F" opacity="0.85">overrides</text><g filter="url(#shadow)"><rect x="660" y="603" width="190" height="64" rx="14" fill="#FEF3C7" stroke="#B45309" stroke-width="2.5"/></g><text x="755" y="624" text-anchor="middle" font-family="Segoe UI, Inter, Helvetica, Arial, sans-serif" font-size="15" font-weight="700" fill="#78350F">DECIDED</text><text x="755" y="639" text-anchor="middle" font-family="Segoe UI, Inter, Helvetica, Arial, sans-serif" font-size="12" font-weight="400" fill="#78350F" opacity="0.85">Approve · with</text><text x="755" y="654" text-anchor="middle" font-family="Segoe UI, Inter, Helvetica, Arial, sans-serif" font-size="12" font-weight="400" fill="#78350F" opacity="0.85">conditions · Reject</text><g filter="url(#shadow)"><rect x="1060" y="603" width="190" height="64" rx="14" fill="#FEF3C7" stroke="#B45309" stroke-width="2.5"/></g><text x="1155" y="624" text-anchor="middle" font-family="Segoe UI, Inter, Helvetica, Arial, sans-serif" font-size="15" font-weight="700" fill="#78350F">CLOSED</text><text x="1155" y="639" text-anchor="middle" font-family="Segoe UI, Inter, Helvetica, Arial, sans-serif" font-size="12" font-weight="400" fill="#78350F" opacity="0.85">Read-only, audit</text><text x="1155" y="654" text-anchor="middle" font-family="Segoe UI, Inter, Helvetica, Arial, sans-serif" font-size="12" font-weight="400" fill="#78350F" opacity="0.85">chain verified</text><path d="M335,212 L335,293" fill="none" stroke="#0F766E" stroke-width="2.5"  marker-end="url(#arrow-owner)"/><rect x="281.4" y="240.5" width="107.2" height="18" rx="9" fill="#ffffff" stroke="#0F766E" stroke-width="1"/><text x="335" y="253.5" text-anchor="middle" font-family="Segoe UI, Inter, Helvetica, Arial, sans-serif" font-size="11.5" font-weight="600" fill="#134E4A">start_pipeline</text><path d="M335,357 L335,443" fill="none" stroke="#6D28D9" stroke-width="2.5"  marker-end="url(#arrow-ai)"/><rect x="284.8" y="388" width="100.39999999999999" height="18" rx="9" fill="#ffffff" stroke="#6D28D9" stroke-width="1"/><text x="335" y="401" text-anchor="middle" font-family="Segoe UI, Inter, Helvetica, Arial, sans-serif" font-size="11.5" font-weight="600" fill="#3B0764">pipeline_done</text><path d="M430,325 L520,325" fill="none" stroke="#6D28D9" stroke-width="2.5" stroke-dasharray="7 5" marker-end="url(#arrow-ai)"/><path d="M645,357 L645,415 L460,415 L460,443" fill="none" stroke="#1D4ED8" stroke-width="2.5"  marker-end="url(#arrow-analyst)"/><rect x="495.5" y="397" width="114" height="18" rx="9" fill="#ffffff" stroke="#1D4ED8" stroke-width="1"/><text x="552.5" y="410" text-anchor="middle" font-family="Segoe UI, Inter, Helvetica, Arial, sans-serif" font-size="11.5" font-weight="600" fill="#1E3A8A">manual_continue</text><path d="M430,475 L520,475" fill="none" stroke="#1D4ED8" stroke-width="2.5"  marker-end="url(#arrow-analyst)"/><path d="M645,507 L645,575 L335,575 L335,603" fill="none" stroke="#1D4ED8" stroke-width="2.5"  marker-end="url(#arrow-analyst)"/><rect x="405.8" y="557" width="168.4" height="18" rx="9" fill="#ffffff" stroke="#1D4ED8" stroke-width="1"/><text x="490" y="570" text-anchor="middle" font-family="Segoe UI, Inter, Helvetica, Arial, sans-serif" font-size="11.5" font-weight="600" fill="#1E3A8A">finalize (guard passed)</text><path d="M335,443 L335,425 L1100,425 L1100,212" fill="none" stroke="#1D4ED8" stroke-width="2.5"  marker-end="url(#arrow-analyst)"/><rect x="670.7" y="407" width="93.6" height="18" rx="9" fill="#ffffff" stroke="#1D4ED8" stroke-width="1"/><text x="717.5" y="420" text-anchor="middle" font-family="Segoe UI, Inter, Helvetica, Arial, sans-serif" font-size="11.5" font-weight="600" fill="#1E3A8A">request_info</text><path d="M1250,212 L1250,475 L770,475" fill="none" stroke="#0F766E" stroke-width="2.5"  marker-end="url(#arrow-owner)"/><rect x="915.6" y="457" width="188.79999999999998" height="18" rx="9" fill="#ffffff" stroke="#0F766E" stroke-width="1"/><text x="1010" y="470" text-anchor="middle" font-family="Segoe UI, Inter, Helvetica, Arial, sans-serif" font-size="11.5" font-weight="600" fill="#134E4A">info_provided / accept_gap</text><path d="M430,635 L660,635" fill="none" stroke="#B45309" stroke-width="2.5"  marker-end="url(#arrow-committee)"/><rect x="484.6" y="611" width="120.8" height="18" rx="9" fill="#ffffff" stroke="#B45309" stroke-width="1"/><text x="545" y="624" text-anchor="middle" font-family="Segoe UI, Inter, Helvetica, Arial, sans-serif" font-size="11.5" font-weight="600" fill="#78350F">approve · reject</text><path d="M850,635 L1060,635" fill="none" stroke="#B45309" stroke-width="2.5"  marker-end="url(#arrow-committee)"/><rect x="932" y="611" width="46" height="18" rx="9" fill="#ffffff" stroke="#B45309" stroke-width="1"/><text x="955" y="624" text-anchor="middle" font-family="Segoe UI, Inter, Helvetica, Arial, sans-serif" font-size="11.5" font-weight="600" fill="#78350F">close</text><path d="M335,667 L335,715 L950,715 L950,540 L770,540 L770,520 L430,520 L430,507" fill="none" stroke="#B45309" stroke-width="2.5" stroke-dasharray="7 5" marker-end="url(#arrow-committee)"/><rect x="752" y="522" width="216" height="18" rx="9" fill="#ffffff" stroke="#B45309" stroke-width="1"/><text x="860" y="535" text-anchor="middle" font-family="Segoe UI, Inter, Helvetica, Arial, sans-serif" font-size="11.5" font-weight="600" fill="#78350F">defer → back to ANALYST_REVIEW</text><rect x="240" y="745" width="18" height="18" rx="5" fill="#CCFBF1" stroke="#0F766E" stroke-width="2"/><text x="266" y="759" font-family="Segoe UI, Inter, Helvetica, Arial, sans-serif" font-size="13" fill="#334155">Product Owner</text><rect x="450" y="745" width="18" height="18" rx="5" fill="#EDE9FE" stroke="#6D28D9" stroke-width="2"/><text x="476" y="759" font-family="Segoe UI, Inter, Helvetica, Arial, sans-serif" font-size="13" fill="#334155">AI pipeline (LLM step)</text><rect x="660" y="745" width="18" height="18" rx="5" fill="#DBEAFE" stroke="#1D4ED8" stroke-width="2"/><text x="686" y="759" font-family="Segoe UI, Inter, Helvetica, Arial, sans-serif" font-size="13" fill="#334155">FCRM Analyst</text><rect x="870" y="745" width="18" height="18" rx="5" fill="#FEF3C7" stroke="#B45309" stroke-width="2"/><text x="896" y="759" font-family="Segoe UI, Inter, Helvetica, Arial, sans-serif" font-size="13" fill="#334155">Risk Committee</text></svg>